<svg fill="none" height="201.278828" viewBox="0 0 2962 1200" width="496.823242" xmlns="http://www.w3.org/2000/svg"><g fill="#000"><path d="m1023.64 264.2h54.32v23.211c5.27-8.231 12.18-14.98 20.74-20.248 8.89-5.267 18.44-7.901 28.65-7.901h2.47c24.03 0 40.82 10.7 50.37 32.099 4.94-8.889 12.18-16.461 21.73-22.716 9.87-6.256 20.9-9.383 33.08-9.383h2.47c18.44 0 32.6 6.255 42.47 18.766 10.21 12.51 15.31 31.112 15.31 55.804v201.98h-56.3v-195.067c0-9.876-2.14-17.613-6.42-23.21-3.95-5.926-10.04-8.889-18.27-8.889h-1.97c-8.23 0-14.49 2.963-18.77 8.889-3.95 5.597-5.92 13.334-5.92 23.21v195.067h-56.3v-195.067c0-9.876-2.14-17.613-6.42-23.21-3.95-5.926-10.04-8.889-18.27-8.889h-1.98c-8.23 0-14.49 2.963-18.77 8.889-3.95 5.597-5.92 13.334-5.92 23.21v195.067h-56.3z"/><path d="m1395.9 540.751c-27.66 0-48.07-6.914-61.24-20.742-13.17-13.827-19.75-34.733-19.75-62.717v-193.092h56.29v195.067c0 9.877 2.14 17.778 6.42 23.704 4.28 5.597 10.54 8.396 18.77 8.396h2.96c8.23 0 14.49-2.799 18.77-8.396 4.28-5.926 6.42-13.827 6.42-23.704v-195.067h56.3v193.092c0 27.984-6.59 48.89-19.76 62.717-13.17 13.828-33.58 20.742-61.23 20.742z"/><path d="m1579.1 540.751c-24.03 0-43.62-6.42-58.77-19.26-15.14-13.169-22.71-30.618-22.71-52.347v-21.729h54.81v16.296c0 9.219 2.47 16.462 7.41 21.729 5.27 5.268 11.85 7.902 19.75 7.902h2.97c7.9 0 14.15-2.14 18.76-6.42 4.94-4.609 7.41-10.7 7.41-18.272v-2.469c0-6.585-1.65-12.182-4.94-16.791-2.96-4.938-8.56-9.877-16.79-14.815l-43.46-25.68c-14.48-8.56-25.51-18.766-33.09-30.618-7.24-11.852-10.86-26.173-10.86-42.964v-3.457c0-22.716 7.08-40.495 21.24-53.335 14.15-12.839 32.92-19.259 56.29-19.259h4.45c24.69 0 44.28 6.09 58.76 18.272 14.49 12.181 21.73 29.63 21.73 52.347v18.272h-54.81v-13.828c0-8.56-2.47-15.309-7.41-20.247-4.61-4.938-10.7-7.408-18.27-7.408h-1.98c-7.57 0-13.66 2.14-18.27 6.42-4.61 3.951-6.91 9.548-6.91 16.791v2.469c0 5.926 1.64 11.194 4.94 15.803 3.62 4.609 8.72 8.889 15.3 12.84l41.49 24.692c17.45 10.206 29.63 21.07 36.54 32.593 7.24 11.194 10.87 26.009 10.87 44.446v4.444c0 22.388-7.41 40.331-22.23 53.829-14.81 13.169-34.07 19.754-57.78 19.754z"/><path d="m1759.48 540.751c-27.66 0-47.9-6.914-60.74-20.742-12.84-14.157-19.26-34.569-19.26-61.236v-117.534c0-54.651 27.32-81.977 81.97-81.977h3.46c51.69 0 77.53 27.326 77.53 81.977v71.113h-106.67v47.903c0 9.876 2.14 17.613 6.42 23.21 4.28 5.268 10.54 7.902 18.77 7.902h1.97c8.24 0 14.33-2.799 18.28-8.396 4.28-5.926 6.42-13.827 6.42-23.704v-8.889h54.81v8.395c0 26.009-6.42 46.256-19.26 60.742-12.51 14.157-31.93 21.236-58.27 21.236zm28.15-168.4v-31.606c0-9.876-2.14-17.613-6.42-23.21-3.95-5.926-10.04-8.889-18.28-8.889h-1.97c-8.23 0-14.49 2.963-18.77 8.889-4.28 5.597-6.42 13.334-6.42 23.21v31.606z"/><path d="m1992.03 600.999c-24.36 0-42.96-4.774-55.8-14.321-12.84-9.548-20.08-22.717-21.73-39.508l-.49-5.432h53.83l.49 1.976c1.65 6.255 4.11 10.864 7.41 13.827 3.62 3.292 9.05 4.938 16.29 4.938h1.49c8.88 0 15.3-2.633 19.26-7.901 3.95-4.938 5.92-12.84 5.92-23.704v-29.631c-9.88 16.791-25.02 25.186-45.43 25.186h-2.97c-20.08 0-35.55-5.761-46.42-17.284-10.86-11.523-16.29-28.808-16.29-51.853v-123.954c0-49.384 20.9-74.076 62.71-74.076h2.97c20.08 0 35.23 8.395 45.43 25.186v-20.248h54.32v255.809c0 26.997-6.75 47.244-20.24 60.743-13.17 13.498-32.43 20.247-57.78 20.247zm-28.15-149.634c0 9.877 2.31 17.779 6.92 23.705 4.61 5.597 11.03 8.395 19.26 8.395h2.47c8.23 0 14.65-2.798 19.26-8.395 4.61-5.926 6.91-13.828 6.91-23.705v-110.62c0-9.876-2.3-17.613-6.91-23.21-4.61-5.926-11.03-8.889-19.26-8.889h-2.47c-8.23 0-14.65 2.963-19.26 8.889-4.61 5.597-6.92 13.334-6.92 23.21z"/><path d="m2094.75 264.2h54.32v35.063c4.28-9.877 10.54-18.108 18.77-24.692 8.23-6.914 18.77-10.371 31.61-10.371h10.86v53.335h-19.26c-13.83 0-24.03 2.963-30.62 8.889-6.25 5.597-9.38 14.98-9.38 28.149v181.239h-56.3z"/><path d="m2304 540.751c-54.65 0-81.98-27.326-81.98-81.978v-117.534c0-54.651 27.17-81.977 81.49-81.977h3.95c54.32 0 81.48 27.326 81.48 81.977v117.534c0 54.652-27.32 81.978-81.98 81.978zm-25.68-81.484c0 9.877 2.31 17.778 6.92 23.704 4.61 5.597 11.03 8.396 19.26 8.396h1.97c8.23 0 14.65-2.799 19.26-8.396 4.61-5.926 6.91-13.827 6.91-23.704v-118.522c0-9.876-2.3-17.613-6.91-23.21-4.61-5.926-11.03-8.889-19.26-8.889h-1.97c-8.23 0-14.65 2.963-19.26 8.889-4.61 5.597-6.92 13.334-6.92 23.21z"/><path d="m2489.67 540.751c-27.65 0-48.06-6.914-61.23-20.742-13.17-13.827-19.76-34.733-19.76-62.717v-193.092h56.3v195.067c0 9.877 2.14 17.778 6.42 23.704 4.28 5.597 10.54 8.396 18.77 8.396h2.96c8.23 0 14.49-2.799 18.77-8.396 4.28-5.926 6.42-13.827 6.42-23.704v-195.067h56.29v193.092c0 27.984-6.58 48.89-19.75 62.717-13.17 13.828-33.58 20.742-61.24 20.742z"/><path d="m2595.34 264.2h54.33v22.717c5.26-8.231 12.34-14.815 21.23-19.754 8.89-5.267 18.44-7.901 28.64-7.901h3.46c18.11 0 32.27 6.42 42.47 19.259 10.54 12.511 15.8 30.783 15.8 54.817v133.337c0 24.692-5.59 43.293-16.79 55.803-11.19 12.182-26.17 18.273-44.94 18.273h-2.96c-20.41 0-35.39-7.573-44.94-22.717v81.977h-56.3zm56.3 195.067c0 9.877 2.14 17.778 6.42 23.704 4.28 5.597 10.54 8.396 18.77 8.396h2.96c8.23 0 14.49-2.799 18.77-8.396 4.28-5.926 6.42-13.827 6.42-23.704v-118.522c0-9.876-2.14-17.613-6.42-23.21-4.28-5.926-10.54-8.889-18.77-8.889h-2.96c-8.23 0-14.49 2.963-18.77 8.889-4.28 5.597-6.42 13.334-6.42 23.21z"/><path clip-rule="evenodd" d="m407.879 264.203h-207.879l336.804 687.6h1.999zm-143.916 223.869h-63.963v447.74h63.963zm383.778-222.869c38.944 22.972 70.959 67.998 70.959 119.93 0 68.917-49.02 122.928-114.933 122.928-12.007 0-22.363-3.555-23.859-4.092 46.658-2.155 83.824-40.664 83.824-87.854 0-48.573-39.376-87.949-87.949-87.949s-87.949 39.376-87.949 87.949c0 .3.001.599.004.899h-.004c0 36.954 22.011 69.074 50.97 84.051 26.97 14.977 55.996 20.988 89.948 20.988 112.853 0 194.887-73.039 194.887-177.896 0-29.954-9-63.982-17.99-79.954h-157.908zm159.904 302.822h-159.907v367.786h159.907z" fill-rule="evenodd"/></g></svg>