<?xml version="1.0" encoding="UTF-8"?>
<svg width="426px" height="126px" viewBox="0 0 426 126" version="1.1" xmlns="http://www.w3.org/2000/svg" xmlns:xlink="http://www.w3.org/1999/xlink">
    <!-- Generator: Sketch 57.1 (83088) - https://sketch.com -->
    <title>05_muse_logo_black_horizontal</title>
    <desc>Created with Sketch.</desc>
    <g id="Page-1" stroke="none" stroke-width="1" fill="none" fill-rule="evenodd">
        <g id="05_muse_logo_black_horizontal" transform="translate(-137.000000, -187.000000)" fill="#000000">
            <g transform="translate(137.000000, 187.000000)">
                <path d="M221.596924,70.1772592 L221.596924,70.7002624 L195.90329,70.7002624 L195.90329,70.1772592 C196.294017,68.6129981 199.424574,58.9601637 199.424574,50.0921732 L199.424574,28.7012752 C199.424574,19.9621701 193.683749,16.4402083 187.423991,16.4402083 C183.195195,16.4402083 179.024736,19.5259949 178.033676,22.0765682 L178.033676,26.0910076 L178.033676,50.0921732 C178.033676,58.9601637 181.032634,68.6129981 181.425396,70.1772592 L181.425396,70.7002624 L155.729048,70.7002624 L155.729048,70.1772592 C155.989532,68.6129981 159.122803,58.9601637 159.122803,50.0921732 L159.122803,28.7012752 C159.122803,19.9621701 153.251736,16.4402083 147.12222,16.4402083 C142.723838,16.4402083 138.775198,19.0599726 137.208902,22.0602879 L137.208902,50.0921732 C137.208902,58.9601637 140.337424,68.6129981 140.597908,70.1772592 L140.597908,70.7002624 L115.034517,70.7002624 L115.034517,70.1772592 C115.295001,68.6129981 118.425558,58.9601637 118.425558,50.0921732 L118.425558,25.5707178 C118.425558,16.7006924 115.295001,10.5535395 115.034517,8.9886 L115.034517,8.46627516 L137.208902,4.96262866 L137.208902,16.0501605 C142.033962,9.26739936 148.556239,4.17981975 157.816991,4.17981975 C166.425854,4.17981975 173.861861,8.35434841 176.729899,17.2236955 C181.554959,9.65812548 188.33772,4.17981975 198.120797,4.17981975 C209.205615,4.17981975 218.207918,11.2223866 218.207918,26.0910076 L218.207918,50.0921732 C218.207918,58.9601637 221.33644,68.6129981 221.596924,70.1772592" id="Fill-79"></path>
                <path d="M295.00188,70.1772592 L295.00188,70.7002624 L276.874494,70.7002624 C275.698246,68.222272 274.131271,63.9175013 273.352532,59.2226828 C268.655001,66.5257338 262.133402,71.8737975 252.222118,71.8737975 C240.741825,71.8737975 230.700978,64.8312306 230.700978,49.9598962 L230.700978,25.5707178 C230.700978,16.7006924 227.569743,10.5535395 227.307224,8.9886 L227.307224,8.46627516 L249.744128,4.96262866 L249.744128,47.352342 C249.744128,56.3519312 254.959915,59.7429726 260.959189,59.7429726 C266.122743,59.7429726 271.363628,56.0643134 272.697252,54.3949089 C272.56701,52.9581764 272.569724,53.0931669 272.569724,51.7866764 L272.569724,25.5707178 C272.569724,16.7006924 269.438488,10.5535395 269.175969,8.9886 L269.175969,8.46627516 L291.480596,4.96262866 L291.480596,50.0921732 C291.480596,58.9601637 294.611154,68.6129981 295.00188,70.1772592" id="Fill-81"></path>
                <path d="M383.185847,30.9915678 L383.185847,32.2315806 L406.661974,29.3520105 C406.403525,19.4407271 403.836672,9.76482898 395.227809,9.76482898 C385.967057,9.76482898 383.185847,20.4270392 383.185847,30.9915678 M424.271105,51.9164436 L424.794108,52.1769277 C421.272825,61.4397143 411.229264,71.8712876 395.446914,71.8712876 C379.14156,71.8712876 362.577758,60.9167111 362.577758,37.9615519 C362.577758,16.8304596 376.272844,4.1793449 395.706719,4.1793449 C417.100331,4.1793449 425.574882,20.0919373 425.574882,36.3972908 L383.446331,36.3972908 C384.752143,49.8318927 390.751417,59.482692 403.9235,59.482692 C410.708296,59.482692 416.837812,57.3954277 424.271105,51.9164436" id="Fill-83"></path>
                <path d="M303.549827,66.3962379 L305.303346,48.1358971 L305.824315,48.1358971 C313.520127,55.9619513 320.76891,66.2659959 330.549273,66.2659959 C335.637531,66.2659959 340.462592,63.6584417 340.462592,58.1794576 C340.462592,52.0479067 334.203512,49.8304003 323.506706,46.0486328 C309.81162,41.0933303 301.855324,34.7033303 301.855324,24.1374449 C301.855324,11.4856519 312.942178,4.18056592 329.115254,4.18056592 C334.986321,4.18056592 343.854311,5.35410096 352.723659,9.00766146 L350.974888,26.4824799 L350.451885,26.4824799 C343.14612,18.138171 336.421018,9.52862962 327.290509,9.52862962 C322.462735,9.52862962 317.769952,11.876378 317.769952,16.8316806 C317.769952,22.9611965 324.813197,25.1807379 335.114528,28.7020213 C350.506152,34.04805 355.724652,40.9610532 355.724652,50.3561169 C355.724652,65.4825086 342.81034,71.8725086 329.375738,71.8725086 C323.246222,71.8725086 314.246633,70.5707666 303.549827,66.3962379" id="Fill-85"></path>
                <path d="M125.44228,104.489863 C122.747898,104.489863 121.479395,101.003175 121.479395,97.093201 C121.479395,93.1845831 122.747898,89.7494494 125.44228,89.7494494 C128.189573,89.7494494 129.510309,93.1845831 129.510309,97.093201 C129.510309,101.003175 128.189573,104.489863 125.44228,104.489863 M121.902003,116.799093 L130.724544,116.799093 C133.578337,116.799093 134.68743,117.803042 134.68743,119.335421 C134.68743,121.713016 130.514258,122.980841 126.498461,122.980841 C120.316713,122.980841 118.098528,120.127726 118.151439,116.693949 L118.151439,116.324252 C119.15471,116.641039 120.370302,116.799093 121.902003,116.799093 M138.755458,90.2778793 L138.913512,90.172736 L140.023961,84.2026309 C135.691379,83.6212901 133.049907,85.893064 131.676261,89.0629653 C129.721274,88.1126054 127.502411,87.6893188 125.44228,87.6893188 C120.21157,87.6893188 113.977589,90.7004876 113.977589,97.0409685 C113.977589,100.950265 116.302274,103.591736 119.312764,105.071204 C116.09063,105.916421 114.083411,107.818497 114.083411,110.98772 C114.083411,112.361367 114.50534,113.893746 115.826754,115.055749 C114.61184,116.21843 113.925356,117.697898 113.925356,119.230277 C113.925356,124.512542 122.113646,125.199704 125.811977,125.199704 C131.887904,125.199704 139.547764,123.773147 139.547764,116.905593 C139.547764,112.15108 136.430774,109.403787 130.989098,109.403787 L122.3782,109.403787 C120.423213,109.403787 118.837923,109.244376 118.837923,107.87073 C118.837923,106.867459 119.841872,106.180296 121.057465,105.810599 C122.483344,106.286118 124.015044,106.497761 125.44228,106.497761 C130.724544,106.497761 137.065025,103.433682 137.065025,97.0409685 C137.065025,93.6594239 135.26877,91.2295959 132.785353,89.6965385 C135.110038,88.9571436 137.117936,89.3797519 138.755458,90.2778793" id="Fill-87"></path>
                <path d="M151.014897,93.1307226 L151.014897,88.0065124 L141.980712,89.4357831 L141.980712,89.6474264 C142.085856,90.281678 143.353681,92.7610252 143.353681,96.3542131 L143.353681,106.285847 C143.353681,109.879035 142.085856,113.789009 141.980712,114.421904 L141.980712,114.633547 L152.441454,114.633547 L152.441454,114.421904 C152.282722,113.789009 151.014897,109.879035 151.014897,106.285847 L151.014897,94.5579583 C154.660318,92.0216303 158.358649,93.8172067 160.682655,96.1948022 L160.894298,96.1948022 L162.109891,87.9536016 C156.561716,86.1573468 152.969884,89.1162831 151.014897,93.1307226" id="Fill-89"></path>
                <path d="M177.274338,112.995618 C173.417952,112.995618 172.044306,106.972602 172.044306,101.267051 C172.044306,95.6144111 173.470863,89.8030385 177.274338,89.8030385 C181.077812,89.8030385 182.557959,95.5615003 182.557959,101.267051 C182.557959,107.026191 181.077812,112.995618 177.274338,112.995618 M177.274338,87.6893188 C169.877675,87.6893188 163.484962,92.1270449 163.484962,101.267051 C163.484962,110.407736 169.877675,115.162249 177.274338,115.162249 C184.671,115.162249 191.168857,110.407736 191.168857,101.267051 C191.168857,92.1806341 184.671,87.6893188 177.274338,87.6893188" id="Fill-91"></path>
                <path d="M219.648517,88.0062411 L210.614332,89.4361901 L210.614332,89.6478334 C210.720154,90.2814067 211.9873,92.7607538 211.9873,96.3539417 L211.9873,106.972738 C211.9873,107.501168 212.040211,108.028919 212.0938,108.61026 C210.561421,109.561977 208.870988,110.19555 207.285698,110.19555 C204.855192,110.19555 202.742151,108.822582 202.742151,105.176483 L202.742151,88.0062411 L193.655055,89.4361901 L193.655055,89.6478334 C193.760877,90.2814067 195.028702,92.7607538 195.028702,96.3539417 L195.028702,106.233343 C195.028702,112.256359 199.09673,115.108795 203.7461,115.108795 C207.761896,115.108795 210.403367,112.942843 212.304765,109.983907 C212.621552,111.886661 213.255804,113.630005 213.730644,114.633276 L221.074396,114.633276 L221.074396,114.421633 C220.91702,113.788738 219.648517,109.878763 219.648517,106.285575 L219.648517,88.0062411 Z" id="Fill-93"></path>
                <path d="M236.926141,111.252342 C235.552494,111.252342 234.284669,110.723912 233.069755,109.878696 L233.069755,93.9240459 C234.390491,92.760686 235.817048,92.0742019 237.295838,92.0742019 C241.310956,92.0742019 242.844013,96.3538739 242.844013,101.161297 C242.844013,106.444918 241.205813,111.252342 236.926141,111.252342 M240.836115,87.6893866 C237.718446,87.6893866 234.86601,89.0630331 233.069755,91.7045045 L233.069755,88.0061732 L223.929749,89.4361223 L223.98266,89.5941764 C224.087803,90.2806605 225.356306,92.9200968 225.356306,96.511928 L225.356306,116.85275 C225.356306,120.444581 224.087803,124.354555 223.98266,124.988807 L223.98266,125.199772 L234.443402,125.199772 L234.443402,124.988807 C234.336902,124.354555 233.069755,120.444581 233.069755,116.85275 L233.069755,111.833683 C235.129886,114.263511 237.877179,115.108727 240.201864,115.108727 C245.484806,115.108727 251.190357,110.671001 251.190357,101.003243 C251.190357,92.1807019 246.382934,87.6893866 240.836115,87.6893866" id="Fill-95"></path>
                <path d="M15.2686404,-2.84217094e-14 L0.000474840764,-2.84217094e-14 L0.000474840764,16.2497293 C4.22248758,10.0795127 9.37247484,4.59781529 15.2686404,-2.84217094e-14" id="Fill-97"></path>
                <path d="M6.96116561,39.8941538 C6.45919108,38.7070519 8.65024204,35.8776793 9.38014013,34.9646283 C10.6255796,33.5401061 12.1898408,32.429657 13.9447166,31.723501 C15.4153662,31.0363385 17.0033694,30.6340806 18.6232548,30.5370774 C21.6113599,30.5784564 24.518742,31.5084659 26.9763822,33.2070392 C28.2720191,34.0230869 29.4082452,35.0670583 30.3314713,36.2880774 C31.2302771,37.6556188 31.7790573,39.2232717 31.9289713,40.8526538 C32.0049459,41.4679118 32.1745318,42.0682462 32.4316242,42.6326283 C32.7836847,43.1040774 33.0889395,43.6087653 33.3439968,44.1392303 C33.5108694,44.6181411 33.3548503,45.1499627 32.9559841,45.4626793 C32.5795032,45.6370137 32.1460414,45.6370137 31.7695605,45.4626793 C30.354535,45.0522812 28.9395096,44.8012939 27.5244841,44.2762557 C26.2464841,43.8522908 24.9325318,43.5463576 23.5989076,43.3632048 C20.7919204,42.8836156 17.9618694,42.6787557 15.1772675,42.1991666 C11.9368185,41.651743 7.37224204,40.8295901 6.96116561,39.8941538 M34.6681242,49.8447812 C38.4512484,46.3126443 41.4183248,41.9976984 43.3631369,37.2011283 C45.2123025,32.6365519 46.2162516,27.4560392 44.0252006,22.9369118 C41.8341497,18.4177844 36.3341369,15.9757462 31.587086,14.6068481 C26.9946975,13.4821538 22.2266178,13.2650838 17.550793,13.9678481 C10.0876529,14.9263481 2.28262739,22.6859245 -5.68434189e-14,25.104899 L-5.68434189e-14,51.2143576 C4.83862739,51.7848449 29.670086,54.4093576 34.6681242,49.8447812" id="Fill-99"></path>
                <path d="M71.0246465,53.2454551 C71.5564682,52.9273118 72.0340223,52.5270889 72.439672,52.0583532 C73.4985669,50.8576844 74.8287994,49.9263182 76.3197994,49.3429424 C77.790449,48.8586048 79.3377516,48.6496748 80.8843758,48.7263277 C82.7220096,48.7873787 84.539293,49.1340124 86.2704268,49.7533404 L86.2704268,31.1985984 C78.5332357,26.8850092 68.012121,26.9996494 61.7360828,33.3665857 C57.7419936,37.3382895 55.7334172,42.8383022 53.930379,48.018815 C52.6293153,51.7619169 50.735379,55.5050188 50.735379,59.544557 C50.735379,60.8910697 51.8994172,63.7441844 50.5983535,63.972108 C48.6420096,64.0277322 46.7012675,63.6125857 44.9382516,62.7626207 C41.3552389,61.8950188 36.9046242,63.6756717 33.7781369,65.0445697 C31.1739745,66.2432035 28.7651752,67.8284933 26.6344968,69.7461717 C24.8769076,71.3212863 21.7958694,73.4662099 21.7958694,76.0907226 C21.6486688,78.3414678 22.8255955,80.4721462 24.8083949,81.5459646 C27.2504331,82.4359519 30.3775987,80.564401 32.7049968,82.0018118 C34.3533726,83.2614965 35.5859236,84.9872035 36.2425605,86.954401 C36.6305732,87.7989392 38.7992389,91.3365029 40.5792134,94.5545666 C39.1825032,94.4372131 37.8129268,94.1061812 36.5166115,93.5730029 C34.8960478,92.8431048 32.5001369,90.4010666 30.674035,89.9214774 C26.2464841,88.7574392 21.9328949,91.5651048 18.2583057,93.6645793 C16.5013949,94.6685283 14.720742,95.6955411 12.9407675,96.6771048 C11.9897293,97.350022 10.9532197,97.8954105 9.8597293,98.2976685 C8.85578025,98.5717194 7.02967834,99.3470666 7.16670382,100.283181 C7.3037293,101.218618 9.44865287,102.56513 13.123242,102.56513 C15.4737038,102.41386 17.7848217,101.890178 19.9704459,101.013758 C22.5718949,100.123092 27.8670478,98.480143 29.989586,100.351694 C31.0410191,101.481815 32.2654299,102.436923 33.6180478,103.181745 C34.9265732,103.432732 36.2635892,103.493783 37.5890732,103.364219 C40.0928408,103.858054 42.3313758,105.245267 43.8881752,107.266732 C44.6872643,108.065821 47.6997898,110.598758 47.4942516,111.831309 C47.3572261,112.630398 46.1477389,113.428809 44.8012261,113.70286 C42.921535,114.088837 40.9746879,113.994547 39.1411242,113.428809 C37.657586,112.767423 33.4810223,108.864232 31.8835223,108.864232 C29.6510924,109.307869 27.3813535,109.537149 25.1055096,109.54936 C23.3709841,109.138283 21.1568694,107.107321 19.9473822,107.266732 C18.7378949,107.426821 15.1087548,109.54936 15.1087548,111.032898 C15.1087548,112.516436 17.9164204,115.597474 19.148293,116.418949 L32.1575732,125.023063 L86.2242994,125.023063 L86.2242994,90.1039519 C84.6267994,94.6685283 74.6992357,98.2976685 72.0747229,98.2976685 C69.4495318,98.2976685 68.1715318,97.7495666 66.6879936,94.3951557 C65.755949,91.4470729 65.3842166,88.3504328 65.5924682,85.2660029 L65.5924682,73.8542226 C65.5924682,72.3937481 65.3190955,66.5057226 67.1906465,65.8436589 C71.1386083,64.4516971 73.7407357,73.3522481 86.2242994,72.9411717 L86.2242994,63.2876589 L85.4028248,62.8996462 C82.8468248,61.6901589 80.4047866,60.2290061 77.8487866,58.9964551 C76.6325159,58.3778054 75.3646911,57.8663341 74.0602357,57.4674678 C72.5990828,57.0570697 71.2986975,56.4635188 69.883672,55.9839296 C69.4861624,55.8767513 69.1483471,55.6135538 68.9475573,55.2540315 C68.8064618,54.7669806 68.9896146,54.2446557 69.4040828,53.9529678 C69.9135191,53.6524615 70.457551,53.4143627 71.0246465,53.2454551" id="Fill-101"></path>
            </g>
        </g>
    </g>
</svg>